<svg width="100" height="100" viewBox="0 0 100 100" xmlns="http://www.w3.org/2000/svg">
  <defs>
    <pattern id="car-pattern" patternUnits="userSpaceOnUse" width="100" height="100">
      <path d="M75,35 C77,35 79,35 81,36 C83,37 84,39 84,41 L84,55 C84,56 83,57 82,57 L80,57 C80,60 78,62 75,62 C72,62 70,60 70,57 L30,57 C30,60 28,62 25,62 C22,62 20,60 20,57 L18,57 C17,57 16,56 16,55 L16,41 C16,39 17,37 19,36 C21,35 23,35 25,35 L75,35 Z M24,47 L16,47 L16,49 L24,49 L24,47 Z M75,50 C73,50 72,52 72,54 C72,56 73,58 75,58 C77,58 78,56 78,54 C78,52 77,50 75,50 Z M25,50 C23,50 22,52 22,54 C22,56 23,58 25,58 C27,58 28,56 28,54 C28,52 27,50 25,50 Z M75,47 L84,47 L84,49 L75,49 L75,47 Z M75,39 L67,39 L67,44 L75,44 L75,39 Z M55,39 L25,39 L25,44 L55,44 L55,39 Z" fill="#ffffff" opacity="0.15"/>
    </pattern>
  </defs>
  <rect width="100" height="100" fill="url(#car-pattern)" />
</svg>
